/* Created with The GIMP */
#define fznback2_width 120
#define fznback2_height 400
static unsigned char fznback2_bits[] = {
   0x00, 0x00, 0x00, 0x00, 0x00, 0x00, 0x00, 0x00, 0x00, 0x00, 0x00, 0x00,
   0x00, 0x00, 0x00, 0x00, 0x00, 0x00, 0x00, 0x00, 0x00, 0x00, 0x00, 0x00,
   0x00, 0x00, 0x00, 0x00, 0x00, 0x00, 0x00, 0x00, 0x00, 0x00, 0x00, 0x00,
   0x00, 0x00, 0x00, 0x00, 0x00, 0x00, 0x00, 0x00, 0x00, 0x00, 0x00, 0x00,
   0x00, 0x00, 0x00, 0x00, 0x00, 0x00, 0x00, 0x00, 0x00, 0x00, 0x00, 0x00,
   0x00, 0x00, 0x00, 0x00, 0x00, 0x00, 0x00, 0x00, 0x00, 0x00, 0x00, 0x00,
   0x00, 0x00, 0x00, 0x00, 0x00, 0x00, 0x00, 0x00, 0x00, 0x00, 0x00, 0x00,
   0x00, 0x00, 0x00, 0x00, 0x00, 0x00, 0x00, 0x00, 0x00, 0x00, 0x00, 0x00,
   0x00, 0x00, 0x00, 0x00, 0x00, 0x00, 0x00, 0x00, 0x00, 0x00, 0x00, 0x00,
   0x00, 0x00, 0x00, 0x00, 0x00, 0x00, 0x00, 0x00, 0x00, 0x00, 0x00, 0x00,
   0x00, 0x00, 0x00, 0x00, 0x00, 0x00, 0x00, 0x00, 0x00, 0x00, 0x00, 0x00,
   0x00, 0x00, 0x00, 0x00, 0x00, 0x00, 0x00, 0x00, 0x00, 0x00, 0x00, 0x00,
   0x00, 0x00, 0x00, 0x00, 0x00, 0x00, 0x00, 0x00, 0x00, 0x00, 0x00, 0x00,
   0x00, 0x00, 0x00, 0x00, 0x00, 0x00, 0x00, 0x00, 0x00, 0x00, 0x00, 0x00,
   0x00, 0x00, 0x00, 0x00, 0x00, 0x00, 0x00, 0x00, 0x00, 0x00, 0x00, 0x00,
   0x00, 0x00, 0x00, 0x00, 0x00, 0x00, 0x00, 0x00, 0x00, 0x00, 0x00, 0x00,
   0x00, 0x00, 0x00, 0x00, 0x00, 0x00, 0x00, 0x00, 0x00, 0x00, 0x00, 0x00,
   0x00, 0x00, 0x00, 0x00, 0x00, 0x00, 0x00, 0x00, 0x00, 0x00, 0x00, 0x00,
   0x00, 0x00, 0x00, 0x00, 0x00, 0x00, 0x00, 0x00, 0x00, 0x00, 0x00, 0x00,
   0x00, 0x00, 0x00, 0x00, 0x00, 0x00, 0x00, 0x00, 0x00, 0x00, 0x00, 0x00,
   0x00, 0x00, 0x00, 0x00, 0x00, 0x00, 0x00, 0x00, 0x00, 0x00, 0x00, 0x00,
   0x00, 0x00, 0x00, 0x00, 0x00, 0x00, 0x00, 0x00, 0x00, 0x00, 0x00, 0x00,
   0x00, 0x00, 0x00, 0x00, 0x00, 0x00, 0x00, 0x00, 0x00, 0x00, 0x00, 0x00,
   0x00, 0x00, 0x00, 0x00, 0x00, 0x00, 0x00, 0x00, 0x00, 0x00, 0x00, 0x00,
   0x00, 0x00, 0x00, 0x00, 0x00, 0x00, 0x00, 0x00, 0x00, 0x00, 0x00, 0x00,
   0x00, 0x00, 0x00, 0x00, 0x00, 0x00, 0x00, 0x00, 0x00, 0x00, 0x00, 0x00,
   0x00, 0x00, 0x00, 0x00, 0x00, 0x00, 0x00, 0x00, 0x00, 0x00, 0x00, 0x00,
   0x00, 0x00, 0x00, 0x00, 0x00, 0x00, 0x00, 0x00, 0x00, 0x00, 0x00, 0x00,
   0x00, 0x00, 0x00, 0x00, 0x00, 0x00, 0x00, 0x00, 0x00, 0x00, 0x00, 0x00,
   0x00, 0x00, 0x00, 0x00, 0x00, 0x00, 0x00, 0x00, 0x00, 0x00, 0x00, 0x00,
   0x00, 0x00, 0x00, 0x00, 0x00, 0x00, 0x00, 0x00, 0x00, 0x00, 0x00, 0x00,
   0x00, 0x00, 0x00, 0x00, 0x00, 0x00, 0x00, 0x00, 0x00, 0x00, 0x00, 0x00,
   0x00, 0x00, 0x00, 0x00, 0x00, 0x00, 0x00, 0x00, 0x00, 0x00, 0x00, 0x00,
   0x00, 0x00, 0x00, 0x00, 0x00, 0x00, 0x00, 0x00, 0x00, 0x00, 0x00, 0x00,
   0x00, 0x00, 0x00, 0x00, 0x00, 0x00, 0x00, 0x00, 0x00, 0x00, 0x00, 0x00,
   0x00, 0x00, 0x00, 0x00, 0x00, 0x00, 0x00, 0x00, 0x00, 0x00, 0x00, 0x00,
   0x00, 0x00, 0x00, 0x00, 0x00, 0x00, 0x00, 0x00, 0x00, 0x00, 0x00, 0x00,
   0x00, 0x00, 0x00, 0x00, 0x00, 0x00, 0x00, 0x00, 0x00, 0x00, 0x00, 0x00,
   0x00, 0x00, 0x00, 0x00, 0x00, 0x00, 0x00, 0x00, 0x00, 0x00, 0x00, 0x00,
   0x00, 0x00, 0x00, 0x00, 0x00, 0x00, 0x00, 0x00, 0x00, 0x00, 0x00, 0x00,
   0x00, 0x00, 0x00, 0x00, 0x00, 0x00, 0x00, 0x00, 0x00, 0x00, 0x00, 0x00,
   0x00, 0x00, 0x00, 0x00, 0x00, 0x00, 0x00, 0x00, 0x00, 0x00, 0x00, 0x00,
   0x00, 0x00, 0x00, 0x00, 0x00, 0x00, 0x00, 0x00, 0x00, 0x00, 0x00, 0x00,
   0x00, 0x00, 0x00, 0x00, 0x00, 0x00, 0x00, 0x00, 0x00, 0x00, 0x00, 0x00,
   0x00, 0x00, 0x00, 0x00, 0x00, 0x00, 0x00, 0x00, 0x00, 0x00, 0x00, 0x00,
   0x00, 0x00, 0x00, 0x00, 0x00, 0x00, 0x00, 0x00, 0x00, 0x00, 0x00, 0x00,
   0x00, 0x00, 0x00, 0x00, 0x00, 0x00, 0x00, 0x00, 0x00, 0x00, 0x00, 0x00,
   0x00, 0x00, 0x00, 0x00, 0x00, 0x00, 0x00, 0x00, 0x00, 0x00, 0x00, 0x00,
   0x00, 0x00, 0x00, 0x00, 0x00, 0x00, 0x00, 0x00, 0x00, 0x00, 0x00, 0x00,
   0x00, 0x00, 0x00, 0x00, 0x00, 0x00, 0x00, 0x00, 0x00, 0x00, 0x00, 0x00,
   0x00, 0x00, 0x00, 0x00, 0x00, 0x00, 0x00, 0x00, 0x00, 0x00, 0x00, 0x00,
   0x00, 0x00, 0x00, 0x00, 0x00, 0x00, 0x00, 0x00, 0x00, 0x00, 0x00, 0x00,
   0x00, 0x00, 0x00, 0x00, 0x00, 0x00, 0x00, 0x00, 0x00, 0x00, 0x00, 0x00,
   0x00, 0x00, 0x00, 0x00, 0x00, 0x00, 0x00, 0x00, 0x00, 0x00, 0x00, 0x00,
   0x00, 0x00, 0x00, 0x00, 0x00, 0x00, 0x00, 0x00, 0x00, 0x00, 0x00, 0x00,
   0x00, 0x00, 0x00, 0x00, 0x00, 0x00, 0x00, 0x00, 0x00, 0x00, 0x00, 0x00,
   0x00, 0x00, 0x00, 0x00, 0x00, 0x00, 0x00, 0x00, 0x00, 0x00, 0x00, 0x00,
   0x00, 0x00, 0x00, 0x00, 0x00, 0x00, 0x00, 0x00, 0x00, 0x00, 0x00, 0x00,
   0x00, 0x00, 0x00, 0x00, 0x00, 0x00, 0x00, 0x00, 0x00, 0x00, 0x00, 0x00,
   0x00, 0x00, 0x00, 0x00, 0x00, 0x00, 0x00, 0x00, 0x00, 0x00, 0x00, 0x00,
   0x00, 0x00, 0x00, 0x00, 0x00, 0x00, 0x00, 0x00, 0x00, 0x00, 0x00, 0x00,
   0x00, 0x00, 0x00, 0x00, 0x00, 0x00, 0x00, 0x00, 0x00, 0x00, 0x00, 0x00,
   0x00, 0x00, 0x00, 0x00, 0x00, 0x00, 0x00, 0x00, 0x00, 0x00, 0x00, 0x00,
   0x00, 0x00, 0x00, 0x00, 0x00, 0x00, 0x00, 0x00, 0x00, 0x00, 0x00, 0x00,
   0x00, 0x00, 0x00, 0x00, 0x00, 0x00, 0x00, 0x00, 0x00, 0x00, 0x00, 0x00,
   0x00, 0x00, 0x00, 0x00, 0x00, 0x00, 0x00, 0x00, 0x00, 0x00, 0x00, 0x00,
   0x00, 0x00, 0x00, 0x00, 0x00, 0x00, 0x00, 0x00, 0x00, 0x00, 0x00, 0x00,
   0x00, 0x00, 0x00, 0x00, 0x00, 0x00, 0x00, 0x00, 0x00, 0x00, 0x00, 0x00,
   0x00, 0x00, 0x00, 0x00, 0x00, 0x00, 0x00, 0x00, 0x00, 0x00, 0x00, 0x00,
   0x00, 0x00, 0x00, 0x00, 0x00, 0x00, 0x00, 0x00, 0x00, 0x00, 0x00, 0x00,
   0x00, 0x00, 0x00, 0x00, 0x00, 0x00, 0x00, 0x00, 0x00, 0x00, 0x00, 0x00,
   0x00, 0x00, 0x00, 0x00, 0x00, 0x00, 0x00, 0x00, 0x00, 0x00, 0x00, 0x00,
   0x00, 0x00, 0x00, 0x00, 0x00, 0x00, 0x00, 0x00, 0x00, 0x00, 0x00, 0x00,
   0x00, 0x00, 0x00, 0x00, 0x00, 0x00, 0x00, 0x00, 0x00, 0x00, 0x00, 0x00,
   0x00, 0x00, 0x00, 0x00, 0x00, 0x00, 0x00, 0x00, 0x00, 0x00, 0x00, 0x00,
   0x00, 0x00, 0x00, 0x00, 0x00, 0x00, 0x00, 0x00, 0x00, 0x00, 0x00, 0x00,
   0x00, 0x00, 0x00, 0x00, 0x00, 0x00, 0x00, 0x00, 0x00, 0x00, 0x00, 0x00,
   0x00, 0x00, 0x00, 0x00, 0x00, 0x00, 0x00, 0x00, 0x00, 0x00, 0x00, 0x00,
   0x00, 0x00, 0x00, 0x00, 0x00, 0x00, 0x00, 0x00, 0x00, 0x00, 0x00, 0x00,
   0x00, 0x00, 0x00, 0x00, 0x00, 0x00, 0x00, 0x00, 0x00, 0x00, 0x00, 0x00,
   0x00, 0x00, 0x00, 0x00, 0x00, 0x00, 0x00, 0x00, 0x00, 0x00, 0x00, 0x00,
   0x00, 0x00, 0x00, 0x00, 0x00, 0x00, 0x00, 0x00, 0x00, 0x00, 0x00, 0x00,
   0x00, 0x00, 0x00, 0x00, 0x00, 0x00, 0x00, 0x00, 0x00, 0x00, 0x00, 0x00,
   0x00, 0x00, 0x00, 0x00, 0x00, 0x00, 0x00, 0x00, 0x00, 0x00, 0x00, 0x00,
   0x00, 0x00, 0x00, 0x00, 0x00, 0x00, 0x00, 0x00, 0x00, 0x00, 0x00, 0x00,
   0x00, 0x00, 0x00, 0x00, 0x00, 0x00, 0x00, 0x00, 0x00, 0x00, 0x00, 0x00,
   0x00, 0x00, 0x00, 0x00, 0x00, 0x00, 0x00, 0x00, 0x00, 0x00, 0x00, 0x00,
   0x00, 0x00, 0x00, 0x00, 0x00, 0x00, 0x00, 0x00, 0x00, 0x00, 0x00, 0x00,
   0x00, 0x00, 0x00, 0x00, 0x00, 0x00, 0x00, 0x00, 0x00, 0x00, 0x00, 0x00,
   0x00, 0x00, 0x00, 0x00, 0x00, 0x00, 0x00, 0x00, 0x00, 0x00, 0x00, 0x00,
   0x00, 0x00, 0x00, 0x00, 0x00, 0x00, 0x00, 0x00, 0x00, 0x00, 0x00, 0x00,
   0x00, 0x00, 0x00, 0x00, 0x00, 0x00, 0x00, 0x00, 0x00, 0x00, 0x00, 0x00,
   0x00, 0x00, 0x00, 0x00, 0x00, 0x00, 0x00, 0x00, 0x00, 0x00, 0x00, 0x00,
   0x00, 0x00, 0x00, 0x00, 0x00, 0x00, 0x00, 0x00, 0x00, 0x00, 0x00, 0x00,
   0x00, 0x00, 0x00, 0x00, 0x00, 0x00, 0x00, 0x00, 0x00, 0x00, 0x00, 0x00,
   0x00, 0x00, 0x00, 0x00, 0x00, 0x00, 0x00, 0x00, 0x00, 0x00, 0x00, 0x00,
   0x00, 0x00, 0x00, 0x00, 0x00, 0x00, 0x00, 0x00, 0x00, 0x00, 0x00, 0x00,
   0x00, 0x00, 0x00, 0x00, 0x00, 0x00, 0x00, 0x00, 0x00, 0x00, 0x00, 0x00,
   0x00, 0x00, 0x00, 0x00, 0x00, 0x00, 0x00, 0x00, 0x00, 0x00, 0x00, 0x00,
   0x00, 0x00, 0x00, 0x00, 0x00, 0x00, 0x00, 0x00, 0x00, 0x00, 0x00, 0x00,
   0x00, 0x00, 0x00, 0x00, 0x00, 0x00, 0x00, 0x00, 0x00, 0x00, 0x00, 0x00,
   0x00, 0x00, 0x00, 0x00, 0x00, 0x00, 0x00, 0x00, 0x00, 0x00, 0x00, 0x00,
   0x00, 0x00, 0x00, 0x00, 0x00, 0x00, 0x00, 0x00, 0x00, 0x00, 0x00, 0x00,
   0x00, 0x00, 0x00, 0x00, 0x00, 0x00, 0x00, 0x00, 0x00, 0x00, 0x00, 0x00,
   0x00, 0x00, 0x00, 0x00, 0x00, 0x00, 0x00, 0x00, 0x00, 0x00, 0x00, 0x00,
   0x00, 0x00, 0x00, 0x00, 0x00, 0x00, 0x00, 0x00, 0x00, 0x00, 0x00, 0x00,
   0x00, 0x00, 0x00, 0x00, 0x00, 0x00, 0x00, 0x00, 0x00, 0x00, 0x00, 0x00,
   0x00, 0x00, 0x00, 0x00, 0x00, 0x00, 0x00, 0x00, 0x00, 0x00, 0x00, 0x00,
   0x00, 0x00, 0x00, 0x00, 0x00, 0x00, 0x00, 0x00, 0x00, 0x00, 0x00, 0x00,
   0x00, 0x00, 0x00, 0x00, 0x00, 0x00, 0x00, 0x00, 0x00, 0x00, 0x00, 0x00,
   0x00, 0x00, 0x00, 0x00, 0x00, 0x00, 0x00, 0x00, 0x00, 0x00, 0x00, 0x00,
   0x00, 0x00, 0x00, 0x00, 0x00, 0x00, 0x00, 0x00, 0x00, 0x00, 0x00, 0x00,
   0x00, 0x00, 0x00, 0x00, 0x00, 0x00, 0x00, 0x00, 0x00, 0x00, 0x00, 0x00,
   0x00, 0x00, 0x00, 0x00, 0x00, 0x00, 0x00, 0x00, 0x00, 0x00, 0x00, 0x00,
   0x00, 0x00, 0x00, 0x00, 0x00, 0x00, 0x00, 0x00, 0x00, 0x00, 0x00, 0x00,
   0x00, 0x00, 0x00, 0x00, 0x00, 0x00, 0x00, 0x00, 0x00, 0x00, 0x00, 0x00,
   0x00, 0x00, 0x00, 0x00, 0x00, 0x00, 0x00, 0x00, 0x00, 0x00, 0x00, 0x00,
   0x00, 0x00, 0x00, 0x00, 0x00, 0x00, 0x00, 0x00, 0x00, 0x00, 0x00, 0x00,
   0x00, 0x00, 0x00, 0x00, 0x00, 0x00, 0x00, 0x00, 0x00, 0x00, 0x00, 0x00,
   0x00, 0x00, 0x00, 0x00, 0x00, 0x00, 0x00, 0x00, 0x00, 0x00, 0x00, 0x00,
   0x00, 0x00, 0x00, 0x00, 0x00, 0x00, 0x00, 0x00, 0x00, 0x00, 0x00, 0x00,
   0x00, 0x00, 0x00, 0x00, 0x00, 0x00, 0x00, 0x00, 0x00, 0x00, 0x00, 0x00,
   0x00, 0x00, 0x00, 0x00, 0x00, 0x00, 0x00, 0x00, 0x00, 0x00, 0x00, 0x00,
   0x00, 0x00, 0x00, 0x00, 0x00, 0x00, 0x00, 0x00, 0x00, 0x00, 0x00, 0x00,
   0x00, 0x00, 0x00, 0x00, 0x00, 0x00, 0x00, 0x00, 0x00, 0x00, 0x00, 0x00,
   0x00, 0x00, 0x00, 0x00, 0x00, 0x00, 0x00, 0x00, 0x00, 0x00, 0x00, 0x00,
   0x00, 0x00, 0x00, 0x00, 0x00, 0x00, 0x00, 0x00, 0x00, 0x00, 0x00, 0x00,
   0x00, 0x00, 0x00, 0x00, 0x00, 0x00, 0x00, 0x00, 0x00, 0x00, 0x00, 0x00,
   0x00, 0x00, 0x00, 0x00, 0x00, 0x00, 0x00, 0x00, 0x00, 0x00, 0x00, 0x00,
   0x00, 0x00, 0x00, 0x00, 0x00, 0x00, 0x00, 0x00, 0x00, 0x00, 0x00, 0x00,
   0x00, 0x00, 0x00, 0x00, 0x00, 0x00, 0x00, 0x00, 0x00, 0x00, 0x00, 0x00,
   0x00, 0x00, 0x00, 0x00, 0x00, 0x00, 0x00, 0x00, 0x00, 0x00, 0x00, 0x00,
   0x00, 0x00, 0x00, 0x00, 0x00, 0x00, 0x00, 0x00, 0x00, 0x00, 0x00, 0x00,
   0x00, 0x00, 0x00, 0x00, 0x00, 0x00, 0x00, 0x00, 0x00, 0x00, 0x00, 0x00,
   0x00, 0x00, 0x00, 0x00, 0x00, 0x00, 0x00, 0x00, 0x00, 0x00, 0x00, 0x00,
   0x00, 0x00, 0x00, 0x00, 0x00, 0x00, 0x00, 0x00, 0x00, 0x00, 0x00, 0x00,
   0x00, 0x00, 0x00, 0x00, 0x00, 0x00, 0x00, 0x00, 0x00, 0x00, 0x00, 0x00,
   0x00, 0x00, 0x00, 0x00, 0x00, 0x00, 0x00, 0x00, 0x00, 0x00, 0x00, 0x00,
   0x00, 0x00, 0x00, 0x00, 0x00, 0x00, 0x00, 0x00, 0x00, 0x00, 0x00, 0x00,
   0x00, 0x00, 0x00, 0x00, 0x00, 0x00, 0x00, 0x00, 0x00, 0x00, 0x00, 0x00,
   0x00, 0x00, 0x00, 0x00, 0x00, 0x00, 0x00, 0x00, 0x00, 0x00, 0x00, 0x00,
   0x00, 0x00, 0x00, 0x00, 0x00, 0x00, 0x00, 0x00, 0x00, 0x00, 0x00, 0x00,
   0x00, 0x00, 0x00, 0x00, 0x00, 0x00, 0x00, 0x00, 0x00, 0x00, 0x00, 0x00,
   0x00, 0x00, 0x00, 0x00, 0x00, 0x00, 0x00, 0x00, 0x00, 0x00, 0x00, 0x00,
   0x00, 0x00, 0x00, 0x00, 0x00, 0x00, 0x00, 0x00, 0x00, 0x00, 0x00, 0x00,
   0x00, 0x00, 0x00, 0x00, 0x00, 0x00, 0x00, 0x00, 0x00, 0x00, 0x00, 0x00,
   0x00, 0x00, 0x00, 0x00, 0x00, 0x00, 0x00, 0x00, 0x00, 0x00, 0x00, 0x00,
   0x00, 0x00, 0x00, 0x00, 0x00, 0x00, 0x00, 0x00, 0x00, 0x00, 0x00, 0x00,
   0x00, 0x00, 0x00, 0x00, 0x00, 0x00, 0x00, 0x00, 0x00, 0x00, 0x00, 0x00,
   0x00, 0x00, 0x00, 0x00, 0x00, 0x00, 0x00, 0x00, 0x00, 0x00, 0x00, 0x00,
   0x00, 0x00, 0x00, 0x00, 0x00, 0x00, 0x00, 0x00, 0x00, 0x00, 0x00, 0x00,
   0x00, 0x00, 0x00, 0x00, 0x00, 0x00, 0x00, 0x00, 0x00, 0x00, 0x00, 0x00,
   0x00, 0x00, 0x00, 0x00, 0x00, 0x00, 0x00, 0x00, 0x00, 0x00, 0x00, 0x00,
   0x00, 0x00, 0x00, 0x00, 0x00, 0x00, 0x00, 0x00, 0x00, 0x00, 0x00, 0x00,
   0x00, 0x00, 0x00, 0x00, 0x00, 0x00, 0x00, 0x00, 0x00, 0x00, 0x00, 0x00,
   0x00, 0x00, 0x00, 0x00, 0x00, 0x00, 0x00, 0x00, 0x00, 0x00, 0x00, 0x00,
   0x00, 0x00, 0x00, 0x00, 0x00, 0x00, 0x00, 0x00, 0x00, 0x00, 0x00, 0x00,
   0x00, 0x00, 0x00, 0x00, 0x00, 0x00, 0x00, 0x00, 0x00, 0x00, 0x00, 0x00,
   0x00, 0x00, 0x00, 0x00, 0x00, 0x00, 0x00, 0x00, 0x00, 0x00, 0x00, 0x00,
   0x00, 0x00, 0x00, 0x00, 0x00, 0x00, 0x00, 0x00, 0x00, 0x00, 0x00, 0x00,
   0x00, 0x00, 0x00, 0x00, 0x00, 0x00, 0x00, 0x00, 0x00, 0x00, 0x00, 0x00,
   0x00, 0x00, 0x00, 0x00, 0x00, 0x00, 0x00, 0x00, 0x00, 0x00, 0x00, 0x00,
   0x00, 0x00, 0x00, 0x00, 0x00, 0x00, 0x00, 0x00, 0x00, 0x00, 0x00, 0x00,
   0x00, 0x00, 0x00, 0x00, 0x00, 0x00, 0x00, 0x00, 0x00, 0x00, 0x00, 0x00,
   0x00, 0x00, 0x00, 0x00, 0x00, 0x00, 0x00, 0x00, 0x00, 0x00, 0x00, 0x00,
   0x00, 0x00, 0x00, 0x00, 0x00, 0x00, 0x00, 0x00, 0x00, 0x00, 0x00, 0x00,
   0x00, 0x00, 0x00, 0x00, 0x00, 0x00, 0x00, 0x00, 0x00, 0x00, 0x00, 0x00,
   0x00, 0x00, 0x00, 0x00, 0x00, 0x00, 0x00, 0x00, 0x00, 0x00, 0x00, 0x00,
   0x00, 0x00, 0x00, 0x00, 0x00, 0x00, 0x00, 0x00, 0x00, 0x00, 0x00, 0x00,
   0x00, 0x00, 0x00, 0x00, 0x00, 0x00, 0x00, 0x00, 0x00, 0x00, 0x00, 0x00,
   0x00, 0x00, 0x00, 0x00, 0x00, 0x00, 0x00, 0x00, 0x00, 0x00, 0x00, 0x00,
   0x00, 0x00, 0x00, 0x00, 0x00, 0x00, 0x00, 0x00, 0x00, 0x00, 0x00, 0x00,
   0x00, 0x00, 0x00, 0x00, 0x00, 0x00, 0x00, 0x00, 0x00, 0x00, 0x00, 0x00,
   0x00, 0x00, 0x00, 0x00, 0x00, 0x00, 0x00, 0x00, 0x00, 0x00, 0x00, 0x00,
   0x00, 0x00, 0x00, 0x00, 0x00, 0x00, 0x00, 0x00, 0x00, 0x00, 0x00, 0x00,
   0x00, 0x00, 0x00, 0x00, 0x00, 0x00, 0x00, 0x00, 0x00, 0x00, 0x00, 0x00,
   0x00, 0x00, 0x00, 0x00, 0x00, 0x00, 0x00, 0x00, 0x00, 0x00, 0x00, 0x00,
   0x00, 0x00, 0x00, 0x00, 0x00, 0x00, 0x00, 0x00, 0x00, 0x00, 0x00, 0x00,
   0x00, 0x00, 0x00, 0x00, 0x00, 0x00, 0x00, 0x00, 0x00, 0x00, 0x00, 0x00,
   0x00, 0x00, 0x00, 0x00, 0x00, 0x00, 0x00, 0x00, 0x00, 0x00, 0x00, 0x00,
   0x00, 0x00, 0x00, 0x00, 0x00, 0x00, 0x00, 0x00, 0x00, 0x00, 0x00, 0x00,
   0x00, 0x00, 0x00, 0x00, 0x00, 0x00, 0x00, 0x00, 0x00, 0x00, 0x00, 0x00,
   0x00, 0x00, 0x00, 0x00, 0x00, 0x00, 0x00, 0x00, 0x00, 0x00, 0x00, 0x00,
   0x00, 0x00, 0x00, 0x00, 0x00, 0x00, 0x00, 0x00, 0x00, 0x00, 0x00, 0x00,
   0x00, 0x00, 0x00, 0x00, 0x00, 0x00, 0x00, 0x00, 0x00, 0x00, 0x00, 0x00,
   0x00, 0x00, 0x00, 0x00, 0x00, 0x00, 0x00, 0x00, 0x00, 0x00, 0x00, 0x00,
   0x00, 0x00, 0x00, 0x00, 0x00, 0x00, 0x00, 0x00, 0x00, 0x00, 0x00, 0x00,
   0x00, 0x00, 0x00, 0x00, 0x00, 0x00, 0x00, 0x00, 0x00, 0x00, 0x00, 0x00,
   0x00, 0x00, 0x00, 0x00, 0x00, 0x00, 0x00, 0x00, 0x00, 0x01, 0x00, 0x00,
   0x00, 0x00, 0x00, 0x00, 0x00, 0x00, 0x00, 0x00, 0x00, 0x00, 0x00, 0x00,
   0x03, 0x00, 0x00, 0x00, 0x00, 0x00, 0x00, 0x00, 0x00, 0x00, 0x00, 0x00,
   0x00, 0x00, 0x00, 0x03, 0x00, 0x00, 0x00, 0x00, 0x00, 0x00, 0x00, 0x00,
   0x00, 0x00, 0x00, 0x00, 0x00, 0x00, 0x03, 0x00, 0x00, 0x00, 0x00, 0x00,
   0x00, 0x00, 0x00, 0x00, 0x00, 0x00, 0x00, 0x00, 0x00, 0x03, 0x00, 0x00,
   0x00, 0x00, 0x00, 0x00, 0x00, 0x00, 0x00, 0x00, 0x00, 0x00, 0x00, 0x00,
   0x01, 0x00, 0x00, 0x00, 0x00, 0x00, 0x00, 0x00, 0x00, 0x00, 0x00, 0x00,
   0x00, 0x00, 0x00, 0x79, 0x00, 0x00, 0x00, 0x00, 0x00, 0x00, 0x00, 0x00,
   0x00, 0x00, 0x00, 0x00, 0x00, 0x00, 0xfc, 0x00, 0x00, 0x00, 0x00, 0x00,
   0x00, 0x00, 0x00, 0x00, 0x00, 0x00, 0x00, 0x00, 0x00, 0xfe, 0x01, 0x00,
   0x00, 0x00, 0x00, 0x00, 0x00, 0x00, 0x00, 0x00, 0x00, 0x00, 0x00, 0x00,
   0xff, 0x00, 0x00, 0x00, 0x00, 0x00, 0x00, 0x00, 0x00, 0x00, 0x00, 0x00,
   0x00, 0x00, 0x00, 0xff, 0x0d, 0x00, 0x00, 0x00, 0x00, 0x00, 0x00, 0x00,
   0x00, 0x00, 0x00, 0x00, 0x00, 0x00, 0xff, 0x1f, 0x00, 0x00, 0x00, 0x00,
   0x00, 0x00, 0x00, 0x00, 0x00, 0x00, 0x00, 0x00, 0x00, 0x9f, 0x3f, 0x00,
   0x00, 0x00, 0x00, 0x00, 0x00, 0x00, 0x00, 0x00, 0x00, 0x00, 0x00, 0x00,
   0x9f, 0x3f, 0xc0, 0x00, 0x00, 0x00, 0x00, 0x00, 0x00, 0x00, 0x00, 0x00,
   0x00, 0x00, 0x00, 0xdf, 0x3f, 0x40, 0x00, 0x00, 0x00, 0x00, 0x00, 0x00,
   0x00, 0x00, 0x00, 0x00, 0x00, 0x00, 0xff, 0x7f, 0x00, 0x00, 0x00, 0x00,
   0x00, 0x00, 0x00, 0x00, 0x00, 0x00, 0x00, 0x00, 0x00, 0xff, 0xff, 0x03,
   0x00, 0x00, 0x00, 0x00, 0x00, 0x00, 0x00, 0x00, 0x00, 0x00, 0x00, 0x00,
   0xff, 0xff, 0x07, 0x00, 0x00, 0x00, 0x00, 0x00, 0x00, 0x00, 0x00, 0x00,
   0x00, 0x00, 0x00, 0xfc, 0xff, 0x0f, 0x08, 0x00, 0x00, 0x00, 0x00, 0x00,
   0x00, 0x00, 0x00, 0x00, 0x00, 0x00, 0xfc, 0xff, 0x0f, 0x1c, 0x00, 0x00,
   0x00, 0x00, 0x00, 0x00, 0x00, 0x00, 0x00, 0x00, 0x00, 0xfe, 0xff, 0x0f,
   0x08, 0x00, 0x00, 0x00, 0x00, 0x00, 0x00, 0x00, 0x00, 0x00, 0x00, 0x00,
   0xfd, 0xff, 0x0f, 0x00, 0x00, 0x00, 0x00, 0x00, 0x00, 0x00, 0x00, 0x00,
   0x00, 0x00, 0x00, 0xff, 0xff, 0xff, 0x00, 0x00, 0x00, 0x00, 0x00, 0x00,
   0x00, 0x00, 0x00, 0x00, 0x00, 0x00, 0x87, 0xff, 0xff, 0x01, 0x00, 0x00,
   0x00, 0x00, 0x00, 0x00, 0x00, 0x00, 0x00, 0x00, 0x00, 0x87, 0xff, 0xf9,
   0x03, 0x00, 0x00, 0x00, 0x00, 0x00, 0x00, 0x00, 0x00, 0x00, 0x00, 0x00,
   0x07, 0xff, 0xfd, 0x03, 0x00, 0x00, 0x00, 0x00, 0x00, 0x00, 0x00, 0x00,
   0x00, 0x00, 0x00, 0x03, 0xff, 0xff, 0x01, 0x00, 0x00, 0x00, 0x00, 0x00,
   0x00, 0x00, 0x00, 0x00, 0x00, 0x00, 0x40, 0xff, 0xff, 0x0b, 0x00, 0x00,
   0x00, 0x00, 0x00, 0x00, 0x00, 0x00, 0x00, 0x00, 0x00, 0xe0, 0xf9, 0xff,
   0x3e, 0x00, 0x00, 0x00, 0x00, 0x00, 0x00, 0x00, 0x00, 0x00, 0x00, 0x00,
   0xe0, 0xe1, 0x3f, 0x7f, 0x00, 0x00, 0x00, 0x00, 0x00, 0x00, 0x00, 0x00,
   0x00, 0x00, 0x00, 0xf0, 0xe0, 0x1f, 0x7f, 0x00, 0x00, 0x00, 0x00, 0x00,
   0x00, 0x00, 0x00, 0x00, 0x00, 0x00, 0x60, 0xe0, 0xbf, 0x7f, 0x00, 0x00,
   0x00, 0x00, 0x00, 0x00, 0x00, 0x00, 0x00, 0x00, 0x00, 0x00, 0xe0, 0xff,
   0x3f, 0x00, 0x00, 0x00, 0x00, 0x00, 0x00, 0x00, 0x00, 0x00, 0x00, 0x00,
   0x00, 0xf8, 0xff, 0x5f, 0x00, 0x00, 0x00, 0x00, 0x00, 0x00, 0x00, 0x00,
   0x00, 0x00, 0x00, 0x00, 0xfc, 0xff, 0x87, 0x07, 0x00, 0x00, 0x00, 0x00,
   0x00, 0x00, 0x00, 0x00, 0x00, 0x00, 0x00, 0x7c, 0xfc, 0xc7, 0x0f, 0x00,
   0x00, 0x00, 0x00, 0x00, 0x00, 0x00, 0x00, 0x00, 0x00, 0x00, 0x7c, 0xfc,
   0xc7, 0x0f, 0x00, 0x00, 0x00, 0x00, 0x00, 0x00, 0x00, 0x00, 0x00, 0x00,
   0x00, 0x38, 0xfc, 0x87, 0x0f, 0x00, 0x00, 0x00, 0x00, 0x00, 0x00, 0x00,
   0x00, 0x00, 0x00, 0x00, 0x00, 0xff, 0xff, 0x0f, 0x00, 0x00, 0x00, 0x00,
   0x00, 0x00, 0x00, 0x00, 0x00, 0x00, 0x00, 0x80, 0xff, 0xff, 0x04, 0x00,
   0x00, 0x00, 0x00, 0x00, 0x00, 0x00, 0x00, 0x00, 0x00, 0x00, 0x80, 0x9f,
   0xff, 0x00, 0x00, 0x00, 0x00, 0x00, 0x00, 0x00, 0x00, 0x00, 0x00, 0x00,
   0x00, 0x80, 0x1f, 0xff, 0xc0, 0x00, 0x00, 0x00, 0x00, 0x00, 0x00, 0x00,
   0x00, 0x00, 0x00, 0x00, 0x80, 0xaf, 0xff, 0xe0, 0x00, 0x00, 0x00, 0x00,
   0x00, 0x00, 0x00, 0x00, 0x00, 0x00, 0x00, 0x00, 0xdf, 0xff, 0x42, 0x00,
   0x00, 0x00, 0x00, 0x00, 0x00, 0x00, 0x00, 0x00, 0x00, 0x00, 0x00, 0xf8,
   0xff, 0x07, 0x00, 0x00, 0x00, 0x00, 0x00, 0x00, 0x00, 0x00, 0x00, 0x00,
   0x00, 0x00, 0xf0, 0xff, 0x0f, 0x00, 0x00, 0x00, 0x00, 0x00, 0x00, 0x00,
   0x00, 0x00, 0x00, 0x00, 0x00, 0xf8, 0xff, 0x1f, 0x00, 0x00, 0x00, 0x00,
   0x00, 0x00, 0x00, 0x00, 0x00, 0x00, 0x00, 0x00, 0xf0, 0xef, 0x1f, 0x00,
   0x00, 0x00, 0x00, 0x80, 0x00, 0x0e, 0x40, 0x00, 0x00, 0x00, 0x00, 0xf0,
   0xff, 0x1f, 0x00, 0x00, 0x00, 0x00, 0x80, 0x01, 0x0e, 0x20, 0x00, 0x00,
   0x00, 0x00, 0xf0, 0xff, 0x0f, 0x00, 0x00, 0x00, 0x00, 0x00, 0x00, 0x1e,
   0x00, 0x00, 0x00, 0x00, 0x00, 0xe0, 0xff, 0x8f, 0x00, 0x00, 0x00, 0x00,
   0x00, 0x10, 0x0c, 0x00, 0x00, 0x00, 0x00, 0x00, 0xc0, 0xff, 0xe1, 0x01,
   0x00, 0x00, 0x00, 0x0f, 0x78, 0xe0, 0x07, 0x04, 0x00, 0x00, 0x00, 0x02,
   0xff, 0xf1, 0x01, 0x00, 0x00, 0x80, 0x1f, 0xfc, 0xf0, 0x07, 0x1e, 0x00,
   0x00, 0x00, 0x02, 0xff, 0xf1, 0x01, 0x00, 0x40, 0x80, 0x1f, 0xfe, 0xf1,
   0x0f, 0x3f, 0x00, 0x00, 0x00, 0x00, 0xff, 0xeb, 0x01, 0x00, 0x00, 0x80,
   0x3f, 0xfc, 0xff, 0x0f, 0x3f, 0x00, 0x00, 0x00, 0x00, 0xff, 0xff, 0x00,
   0x00, 0x00, 0x80, 0xff, 0xff, 0xff, 0x7f, 0x1f, 0x00, 0x00, 0x00, 0xc0,
   0xff, 0x1f, 0x00, 0x00, 0x00, 0x7c, 0xff, 0xff, 0xff, 0xff, 0xaf, 0x01,
   0x00, 0x00, 0xe0, 0xff, 0x1f, 0x00, 0x00, 0x00, 0xfe, 0xfc, 0xff, 0xff,
   0xff, 0xcf, 0x0f, 0x00, 0x00, 0xe0, 0xe7, 0x3f, 0x00, 0x00, 0x01, 0xfe,
   0xf8, 0xcf, 0xff, 0xfe, 0xe3, 0x0f, 0x00, 0x00, 0xf0, 0xe7, 0x1f, 0x00,
   0x00, 0x03, 0xff, 0xfd, 0xaf, 0x7f, 0xfe, 0xff, 0x0f, 0x00, 0x00, 0xe0,
   0xf7, 0x3f, 0x00, 0x80, 0x07, 0xfe, 0xff, 0xdf, 0x7f, 0xfe, 0xff, 0x1f,
   0x00, 0x00, 0xc0, 0xff, 0x7f, 0x00, 0x00, 0x60, 0xff, 0xff, 0xff, 0xbf,
   0xfd, 0xff, 0xff, 0x00, 0x00, 0x00, 0xfe, 0xff, 0x01, 0x00, 0xf0, 0xff,
   0xff, 0xfe, 0xc4, 0xf7, 0xff, 0xff, 0x00, 0x00, 0x00, 0xfe, 0xf5, 0x01,
   0x14, 0xf8, 0xf7, 0x1f, 0xfe, 0xc0, 0x07, 0xff, 0xff, 0x00, 0x00, 0x02,
   0xff, 0xf9, 0x01, 0x1c, 0xfc, 0xef, 0x0f, 0xfc, 0xe0, 0x07, 0xff, 0xff,
   0x00, 0x00, 0x00, 0xfe, 0xf5, 0x01, 0x1c, 0xf8, 0xf7, 0x1f, 0x78, 0xc0,
   0x03, 0xff, 0xff, 0x00, 0x00, 0x00, 0xfe, 0xff, 0x00, 0x10, 0xfd, 0xff,
   0x0f, 0x00, 0x00, 0x00, 0xfe, 0xff, 0x00, 0x00, 0xc0, 0xff, 0x7f, 0x00,
   0x80, 0xff, 0x7f, 0x01, 0x00, 0x00, 0x00, 0xe8, 0xff, 0x00, 0x00, 0xe0,
   0xff, 0x1f, 0x00, 0xc0, 0xff, 0x3f, 0x00, 0x00, 0x00, 0x00, 0xc0, 0xff,
   0x00, 0x00, 0xe0, 0xf7, 0x1f, 0x00, 0xe0, 0x1f, 0x3f, 0x00, 0x00, 0x00,
   0x20, 0x80, 0xbf, 0x00, 0x00, 0xe0, 0xe7, 0x1f, 0x00, 0xe0, 0x1f, 0x3f,
   0x00, 0x00, 0x00, 0x40, 0xc0, 0x1f, 0x00, 0x00, 0xe0, 0xff, 0x1f, 0x00,
   0xe0, 0x1f, 0x1e, 0x00, 0x00, 0x00, 0x00, 0x80, 0x0f, 0x00, 0x00, 0xc0,
   0xff, 0x7f, 0x00, 0xf8, 0x6f, 0x00, 0x00, 0x00, 0x00, 0x00, 0x00, 0xcf,
   0x00, 0x00, 0x00, 0xff, 0xff, 0x00, 0xfe, 0xff, 0x00, 0x00, 0x00, 0x00,
   0x00, 0x00, 0xe0, 0x00, 0x00, 0x00, 0xfe, 0xff, 0x01, 0xff, 0xfa, 0x00,
   0x00, 0x00, 0x00, 0x00, 0x00, 0xf0, 0x00, 0x00, 0x02, 0xff, 0xf9, 0x01,
   0x7f, 0xfc, 0x00, 0x00, 0x00, 0x00, 0x00, 0x00, 0xf0, 0x00, 0x00, 0x04,
   0xfe, 0xf1, 0x81, 0xff, 0xf8, 0x00, 0x00, 0x00, 0x00, 0x00, 0x00, 0xf0,
   0x00, 0x00, 0x00, 0xff, 0xf3, 0x00, 0x7f, 0x71, 0x00, 0x00, 0x00, 0x00,
   0x00, 0x00, 0xe0, 0x00, 0x00, 0x80, 0xff, 0x0f, 0x80, 0xff, 0x03, 0x00,
   0x00, 0x00, 0x00, 0x00, 0x00, 0x00, 0x00, 0x00, 0xe0, 0xff, 0x1f, 0xf0,
   0xff, 0x07, 0x00, 0x00, 0x00, 0x00, 0x00, 0x00, 0x00, 0x00, 0x00, 0xe0,
   0xff, 0x1f, 0xf8, 0xfb, 0x07, 0x00, 0x00, 0x00, 0x00, 0x00, 0x00, 0x00,
   0x00, 0x00, 0xf0, 0xff, 0x1f, 0xf8, 0xf5, 0x07, 0x00, 0x00, 0x00, 0x00,
   0x00, 0x00, 0x00, 0x00, 0x00, 0xf0, 0xff, 0x1f, 0xf8, 0xfb, 0x07, 0x00,
   0x00, 0x00, 0x00, 0x00, 0x00, 0x00, 0x00, 0x00, 0xf0, 0xff, 0x1f, 0xf8,
   0xff, 0x01, 0x00, 0x00, 0x00, 0x00, 0x00, 0x00, 0x00, 0x00, 0x00, 0xe0,
   0xff, 0x8f, 0xf0, 0x3f, 0x00, 0x00, 0x00, 0x00, 0x00, 0x00, 0x00, 0x00,
   0x00, 0x00, 0x42, 0xff, 0xe1, 0xc3, 0x3f, 0x00, 0x00, 0x00, 0x00, 0x00,
   0x00, 0x00, 0x00, 0x00, 0x00, 0x0f, 0xff, 0xe1, 0x87, 0x3f, 0x00, 0x00,
   0x00, 0x00, 0x00, 0x00, 0x00, 0x00, 0x00, 0x00, 0x0f, 0xff, 0xe0, 0xc7,
   0x3f, 0x00, 0x00, 0x00, 0x00, 0x00, 0x00, 0x00, 0x00, 0x00, 0x00, 0x8f,
   0xff, 0xc0, 0xeb, 0x3f, 0x00, 0x00, 0x00, 0x00, 0x00, 0x00, 0x00, 0x00,
   0x00, 0x00, 0xfd, 0xff, 0x84, 0xf5, 0x1f, 0x00, 0x00, 0x00, 0x00, 0x00,
   0x00, 0x00, 0x00, 0x00, 0x00, 0xfa, 0xff, 0x03, 0xf8, 0x0f, 0x00, 0x00,
   0x00, 0x00, 0x00, 0x00, 0x00, 0x00, 0x00, 0x10, 0xf8, 0xdf, 0x0f, 0xfc,
   0x01, 0x01, 0x00, 0x00, 0x00, 0x00, 0x00, 0x00, 0x00, 0x00, 0x3c, 0xfc,
   0xcf, 0x0f, 0xfc, 0x81, 0x01, 0x00, 0x00, 0x00, 0x00, 0x00, 0x00, 0x00,
   0x00, 0x5c, 0xf8, 0xc7, 0x0f, 0xfc, 0x43, 0x00, 0x00, 0x00, 0x00, 0x00,
   0x00, 0x00, 0x00, 0x00, 0x28, 0xfc, 0xaf, 0x07, 0xfc, 0x07, 0x00, 0x00,
   0x00, 0x00, 0x00, 0x00, 0x00, 0x00, 0x00, 0x90, 0xff, 0x5f, 0x00, 0xfc,
   0x0f, 0x00, 0x00, 0x00, 0x00, 0x00, 0x00, 0x00, 0x00, 0x00, 0xc0, 0xff,
   0x7f, 0xc0, 0xff, 0x1f, 0x00, 0x00, 0x00, 0x00, 0x00, 0x00, 0x00, 0x00,
   0x00, 0xe0, 0xff, 0x7f, 0xc0, 0xf7, 0x1f, 0x00, 0x00, 0x00, 0x00, 0x00,
   0x00, 0x00, 0x00, 0x00, 0xc0, 0x7f, 0x7f, 0xc0, 0xdf, 0x1f, 0x00, 0x00,
   0x00, 0x00, 0x00, 0x00, 0x00, 0x00, 0x00, 0xc0, 0xff, 0x7f, 0xc0, 0xff,
   0x1f, 0x00, 0x00, 0x00, 0x00, 0x00, 0x00, 0x00, 0x00, 0x00, 0xe0, 0xff,
   0x3f, 0x80, 0xff, 0x1f, 0x00, 0x00, 0x00, 0x00, 0x00, 0x00, 0x00, 0x00,
   0x00, 0xfe, 0xff, 0x1f, 0x00, 0xff, 0x09, 0x00, 0x00, 0x00, 0x00, 0x00,
   0x00, 0x00, 0x00, 0x00, 0xff, 0xff, 0x07, 0x00, 0xfc, 0x01, 0x00, 0x00,
   0x00, 0x00, 0x00, 0x00, 0x00, 0x00, 0x01, 0xff, 0xff, 0x03, 0x00, 0xfc,
   0x01, 0x00, 0x00, 0x00, 0x00, 0x00, 0x00, 0x00, 0x00, 0x03, 0xff, 0xff,
   0x03, 0x02, 0xfc, 0x01, 0x00, 0x00, 0x00, 0x00, 0x00, 0x00, 0x00, 0x00,
   0x01, 0xff, 0xff, 0x01, 0x00, 0xfc, 0x01, 0x00, 0x00, 0x00, 0x00, 0x00,
   0x00, 0x00, 0x00, 0x80, 0xff, 0xff, 0x03, 0x00, 0xfe, 0x01, 0x00, 0x00,
   0x00, 0x00, 0x00, 0x00, 0x00, 0x00, 0xf8, 0xff, 0xff, 0x0d, 0x80, 0xff,
   0x0f, 0x00, 0x00, 0x00, 0x00, 0x00, 0x00, 0x00, 0x00, 0xf8, 0xf9, 0x1f,
   0x0e, 0xc0, 0xff, 0x1f, 0x00, 0x00, 0x00, 0x00, 0x00, 0x00, 0x00, 0x00,
   0xf8, 0xf3, 0x1f, 0x1e, 0xc0, 0xdf, 0x1f, 0x00, 0x00, 0x00, 0x00, 0x00,
   0x00, 0x00, 0x00, 0xf8, 0xf3, 0x0f, 0x1c, 0xe0, 0xef, 0x1f, 0x00, 0x00,
   0x00, 0x00, 0x00, 0x00, 0x00, 0x00, 0xf8, 0xff, 0x1f, 0x00, 0xc0, 0xff,
   0x1f, 0x00, 0x00, 0x00, 0x00, 0x00, 0x00, 0x00, 0x00, 0xf0, 0xff, 0x7f,
   0x00, 0x80, 0xff, 0x1f, 0x00, 0x00, 0x00, 0x00, 0x00, 0x00, 0x00, 0x00,
   0xe0, 0xff, 0xff, 0x01, 0x00, 0xfc, 0x87, 0x00, 0x00, 0x00, 0x00, 0x00,
   0x00, 0x00, 0x00, 0x80, 0xff, 0xfa, 0x00, 0x00, 0xfc, 0xe3, 0x01, 0x00,
   0x00, 0x00, 0x00, 0x00, 0x00, 0x00, 0x80, 0xff, 0xfc, 0x01, 0x00, 0xfc,
   0xe1, 0x03, 0x00, 0x00, 0x00, 0x00, 0x00, 0x00, 0x00, 0x00, 0xff, 0xfe,
   0x00, 0x00, 0xfc, 0xe3, 0x03, 0x00, 0x00, 0x00, 0x00, 0x00, 0x00, 0x00,
   0x00, 0xff, 0x7f, 0x00, 0x00, 0xf8, 0xef, 0x01, 0x00, 0x00, 0x00, 0x00,
   0x00, 0x00, 0x00, 0xa0, 0xff, 0x3f, 0x00, 0x00, 0xf0, 0xbf, 0x00, 0x00,
   0x00, 0x00, 0x00, 0x00, 0x00, 0x00, 0xc0, 0xfa, 0x0f, 0x00, 0x00, 0xe0,
   0x3f, 0x00, 0x00, 0x00, 0x00, 0x00, 0x00, 0x00, 0x00, 0xe0, 0xf1, 0x0f,
   0x00, 0x00, 0x82, 0x3f, 0x00, 0x00, 0x00, 0x00, 0x00, 0x00, 0x00, 0x00,
   0xe0, 0xf1, 0x1f, 0x18, 0x00, 0x80, 0x3f, 0x60, 0x00, 0x00, 0x00, 0x00,
   0x00, 0x00, 0xc0, 0xc0, 0xf0, 0x1f, 0x00, 0x00, 0xc0, 0x7f, 0x00, 0x00,
   0x00, 0x00, 0x00, 0x00, 0x00, 0x80, 0x00, 0xfc, 0x7f, 0x00, 0x00, 0xa0,
   0xff, 0x00, 0x00, 0x00, 0x00, 0x00, 0x00, 0x00, 0x00, 0x00, 0xfe, 0xff,
   0x00, 0x00, 0xf0, 0xff, 0x07, 0x00, 0x00, 0x00, 0x00, 0x00, 0x00, 0x00,
   0x00, 0xfe, 0xff, 0x01, 0x00, 0xf0, 0xff, 0x07, 0x00, 0x00, 0x00, 0x00,
   0x00, 0x00, 0x00, 0x00, 0xfc, 0xff, 0x01, 0x00, 0xf0, 0xf5, 0x0f, 0x00,
   0x00, 0x00, 0x00, 0x00, 0x00, 0x00, 0x00, 0xfe, 0xfe, 0x03, 0x00, 0xf0,
   0xfb, 0x0f, 0x00, 0x00, 0x00, 0x00, 0x00, 0x00, 0x00, 0x00, 0xfc, 0xff,
   0x03, 0x00, 0x60, 0xfc, 0x0f, 0x00, 0x00, 0x00, 0x00, 0x00, 0x00, 0x00,
   0x00, 0xf0, 0xff, 0x07, 0x00, 0x00, 0xfe, 0x7f, 0x00, 0x00, 0x00, 0x00,
   0x00, 0x00, 0xc0, 0x00, 0xc0, 0xff, 0x1f, 0x00, 0x00, 0xff, 0xff, 0x00,
   0x00, 0x00, 0x00, 0x00, 0x00, 0xf0, 0x00, 0xc0, 0xff, 0x3f, 0x00, 0x00,
   0xff, 0xff, 0x00, 0x00, 0x00, 0x00, 0x00, 0x00, 0xf0, 0x00, 0xc0, 0x7f,
   0x7f, 0x00, 0x00, 0xff, 0xfd, 0x01, 0x00, 0x00, 0x00, 0x00, 0x18, 0xf0,
   0x00, 0xc0, 0xff, 0x7f, 0x00, 0x00, 0xfe, 0xff, 0x01, 0x00, 0x00, 0x00,
   0x00, 0x18, 0xf0, 0x00, 0x80, 0xff, 0x3f, 0x00, 0x00, 0xfe, 0xff, 0x00,
   0x00, 0x00, 0x00, 0x00, 0x18, 0xf8, 0x00, 0x00, 0xfe, 0x1f, 0x00, 0x00,
   0xf8, 0x7f, 0x00, 0x00, 0x00, 0x00, 0x00, 0x80, 0xff, 0x01, 0x00, 0xf8,
   0xaf, 0x07, 0x00, 0xf0, 0x0f, 0x00, 0xc0, 0x00, 0x00, 0x40, 0xc0, 0xff,
   0x03, 0x00, 0xf8, 0xc7, 0x0f, 0x70, 0xf0, 0x0f, 0x00, 0xe0, 0x01, 0x06,
   0xf0, 0xc1, 0xff, 0x03, 0x00, 0xf8, 0xcf, 0x0f, 0xf0, 0xf0, 0x0f, 0x10,
   0xe0, 0x01, 0x0f, 0xf8, 0xe1, 0x7f, 0x03, 0x00, 0xf0, 0xff, 0x07, 0xf0,
   0xf8, 0x07, 0x00, 0xf0, 0x03, 0x0f, 0xf8, 0xe3, 0xff, 0x03, 0x00, 0xf8,
   0xff, 0x03, 0xc0, 0xff, 0x07, 0x00, 0xf0, 0x23, 0x0c, 0xf9, 0xff, 0xff,
   0x01, 0x00, 0xe4, 0xff, 0x00, 0x80, 0xff, 0x01, 0x80, 0xdf, 0xfe, 0xc0,
   0xff, 0xff, 0xff, 0x30, 0x00, 0x8e, 0xff, 0x80, 0x00, 0x7f, 0x10, 0x80,
   0x1f, 0xfc, 0xe0, 0xdf, 0xff, 0xff, 0x78, 0x00, 0x06, 0xff, 0xc0, 0x81,
   0x7f, 0x68, 0x80, 0x1f, 0xfe, 0xf1, 0xbf, 0xff, 0xf8, 0x78, 0x00, 0x04,
   0xff, 0xa1, 0x81, 0x7f, 0x20, 0x80, 0x3f, 0xff, 0xf1, 0xff, 0xff, 0xf8,
   0x38, 0x00, 0x00, 0xff, 0x43, 0x80, 0x7f, 0x00, 0x80, 0xff, 0xff, 0xff,
   0xff, 0xff, 0xf0, 0x03, 0x00, 0xc0, 0xff, 0x0f, 0xf0, 0xff, 0x01, 0x80,
   0xff, 0xff, 0xff, 0xff, 0xff, 0x03, 0x07, 0x00, 0xe0, 0xff, 0x1f, 0xf8,
   0xff, 0x01, 0x70, 0xfe, 0xff, 0xff, 0xff, 0xdf, 0x07, 0x07, 0x00, 0xe0,
   0xf7, 0x1f, 0xfc, 0xeb, 0x03, 0x7c, 0xfd, 0x8f, 0x7f, 0xfe, 0xc1, 0x07,
   0x07, 0x0c, 0xe0, 0xe7, 0x3f, 0xfc, 0xe1, 0x03, 0xfc, 0xf8, 0xc7, 0x7f,
   0xfe, 0xc3, 0x07, 0x07, 0x02, 0xe0, 0xf1, 0x3f, 0xfc, 0x83, 0x01, 0xfc,
   0xff, 0x83, 0x3f, 0xfc, 0x81, 0x07, 0x07, 0x00, 0x80, 0xfa, 0xff, 0xff,
   0x05, 0x00, 0xfc, 0xff, 0x83, 0xbf, 0xfd, 0x00, 0x00, 0x7f, 0x00, 0x00,
   0xfc, 0xff, 0xff, 0x0f, 0x00, 0xf0, 0xdf, 0x38, 0xc2, 0x4f, 0x00, 0x00,
   0xff, 0x00, 0x00, 0xfe, 0xff, 0xff, 0x1f, 0x00, 0xe1, 0x0f, 0x78, 0xe0,
   0x07, 0x00, 0x00, 0xfe, 0x00, 0x00, 0xfc, 0xfb, 0x9f, 0x1f, 0xe0, 0xc0,
   0x1f, 0x78, 0xc0, 0x03, 0x00, 0x80, 0xfe, 0x01, 0x00, 0xfc, 0xfb, 0x9f,
   0x1f, 0xe0, 0xc1, 0x1f, 0x70, 0xc0, 0x03, 0x00, 0x40, 0xff, 0x00, 0x00,
   0xfc, 0xff, 0x7f, 0x0f, 0xe0, 0xe1, 0x0f, 0x00, 0x80, 0x01, 0x00, 0x80,
   0xff, 0x01, 0x00, 0xf0, 0xff, 0xff, 0x07, 0x80, 0xfb, 0x07, 0x00, 0x00,
   0x00, 0x00, 0x00, 0x7f, 0x0e, 0x00, 0xc0, 0xff, 0xff, 0x00, 0x00, 0xff,
   0x00, 0x00, 0x00, 0x00, 0x00, 0x00, 0x1f, 0x1f, 0x00, 0x80, 0xff, 0xff,
   0x00, 0x00, 0xfe, 0x00, 0x00, 0x00, 0x00, 0x00, 0x00, 0x8f, 0x3f, 0x00,
   0x80, 0xff, 0xfe, 0x00, 0x03, 0xff, 0x00, 0x00, 0x00, 0x00, 0x00, 0x00,
   0x9f, 0x1f, 0x00, 0xc0, 0x7f, 0x7f, 0x00, 0x03, 0x7f, 0x00, 0x00, 0x00,
   0x00, 0x00, 0x00, 0xff, 0x1f, 0x00, 0x80, 0xff, 0x7f, 0x00, 0x84, 0x7f,
   0x00, 0x00, 0x00, 0x00, 0x00, 0x00, 0xff, 0x0f, 0x00, 0x00, 0xff, 0x17,
   0x00, 0xf0, 0x3f, 0x00, 0x00, 0x00, 0x00, 0x00, 0x00, 0xfe, 0x03, 0x02,
   0x40, 0xfe, 0x07, 0x00, 0xf0, 0x0f, 0x01, 0x00, 0x00, 0x00, 0x00, 0xc0,
   0xfc, 0x81, 0x07, 0x20, 0xf0, 0x07, 0x00, 0xf8, 0x87, 0x07, 0x10, 0x00,
   0x00, 0x00, 0xe0, 0xfe, 0xc3, 0x03, 0x00, 0xf8, 0x03, 0x00, 0xf8, 0x83,
   0x07, 0x38, 0x80, 0x03, 0x0c, 0xf0, 0xfc, 0xc3, 0x03, 0x00, 0xf8, 0x03,
   0x00, 0xf8, 0xc3, 0x0f, 0x78, 0xc0, 0x03, 0x1c, 0xf0, 0xfd, 0xaf, 0x01,
   0x00, 0xfc, 0x03, 0x00, 0xfc, 0x8f, 0x07, 0x78, 0x80, 0x03, 0x0a, 0xe0,
   0xff, 0x3f, 0x00, 0x00, 0xfe, 0x00, 0x00, 0xff, 0xff, 0xa1, 0x61, 0x0e,
   0x71, 0x80, 0xdf, 0xff, 0x3f, 0x00, 0x00, 0x1f, 0x00, 0x80, 0xff, 0x7f,
   0xf0, 0x83, 0x1f, 0xf8, 0xc0, 0x0f, 0xff, 0x7f, 0x60, 0x00, 0x1e, 0x30,
   0xc0, 0xff, 0x7f, 0xf8, 0x87, 0x3f, 0xfc, 0xc1, 0x1f, 0xff, 0x7f, 0x70,
   0x00, 0x1e, 0x00, 0xc0, 0xff, 0xff, 0xf8, 0x8f, 0x7f, 0xfc, 0xe1, 0x3f,
   0xff, 0x7f, 0x20, 0x00, 0x04, 0x00, 0xc0, 0xff, 0xff, 0xf8, 0xff, 0xff,
   0xff, 0xe3, 0xdf, 0xff, 0x7f, 0x02, 0x00, 0x00, 0x00, 0xc0, 0xff, 0xff,
   0xff, 0xff, 0xff, 0xff, 0xff, 0xff, 0xff, 0xff, 0x07, 0x00, 0x00, 0x00,
   0xbc, 0xff, 0xff, 0xff, 0xff, 0xff, 0xff, 0xff, 0xff, 0xff, 0xef, 0x0f,
   0x00, 0x00, 0x00, 0x3e, 0xfe, 0xf7, 0xff, 0xff, 0xff, 0xff, 0xff, 0xff,
   0xfe, 0xe7, 0x0f, 0x00, 0x00, 0x00, 0x7e, 0xfc, 0xe3, 0x7f, 0xff, 0xf3,
   0xbf, 0xff, 0xfd, 0xff, 0xe3, 0x0f, 0x00, 0x00, 0x00, 0x3e, 0xfe, 0xc7,
   0x3f, 0xff, 0xfb, 0xdf, 0xff, 0xfe, 0xfe, 0xfb, 0x0f, 0x00, 0x00, 0x00,
   0x3c, 0xff, 0xeb, 0x3f, 0xff, 0xfd, 0xff, 0xff, 0xff, 0xff, 0xff, 0x07,
   0x00, 0x00, 0x00, 0xc0, 0x7f, 0xff, 0xff, 0xff, 0xff, 0xff, 0xff, 0xff,
   0x27, 0x3e, 0x20, 0x00, 0x00, 0x00, 0xc0, 0x0f, 0x7e, 0xe0, 0x9f, 0xff,
   0xff, 0xfb, 0x4f, 0x07, 0x7e, 0xf0, 0x00, 0x00, 0x00, 0xc0, 0x0f, 0x7c,
   0xe0, 0x83, 0x3f, 0xfc, 0xe1, 0x0f, 0x07, 0x3e, 0xe0, 0x00, 0x00, 0x00,
   0xc0, 0x07, 0x3e, 0xf0, 0x03, 0x1f, 0xf8, 0xc1, 0x0f, 0x03, 0x3c, 0x40,
   0x00, 0x00, 0x00, 0x80, 0x03, 0x3c, 0xe0, 0x03, 0x1e, 0xf8, 0xc1, 0x0f,
   0x00, 0x00, 0x00, 0x00, 0x00, 0x00, 0x00, 0x00, 0x00, 0x80, 0x00, 0x0c,
   0xe0, 0x00, 0x03, 0x00, 0x00, 0x00, 0x00, 0x00, 0x00, 0x00, 0x00, 0x00,
   0x00, 0x00, 0x00, 0x00, 0x08, 0x00, 0x00, 0x00, 0x00, 0x00, 0x00, 0x00,
   0x00, 0x00, 0x00, 0x00, 0x00, 0x00, 0x00, 0x00, 0x00, 0x00, 0x00, 0x00,
   0x00, 0x00, 0x00, 0x08, 0x00, 0x00, 0x00, 0x00, 0x00, 0x00, 0x0c, 0xc0,
   0x00, 0x00, 0x00, 0x00, 0x00, 0x00, 0x00, 0x00, 0x00, 0x00, 0x00, 0x00,
   0x00, 0x00, 0x00, 0x00, 0x00, 0x00, 0x00, 0x00, 0x00, 0x00, 0x00, 0x00,
   0x00, 0x00, 0x00, 0x00, 0x00, 0x00, 0x00, 0x00, 0x00, 0x00, 0x00, 0x00,
   0x00, 0x00, 0x00, 0x00, 0x00, 0x00, 0x00, 0x00, 0x00, 0x01, 0x00, 0x00,
   0x00, 0x00, 0x00, 0x00, 0x00, 0x00, 0x00, 0x00, 0x00, 0x00, 0x00, 0x00,
   0x03, 0x3e, 0x00, 0x00, 0x00, 0x00, 0x00, 0x00, 0x00, 0x00, 0x00, 0x00,
   0x00, 0x00, 0x00, 0x07, 0x3f, 0x00, 0x00, 0x00, 0x00, 0x00, 0x03, 0x00,
   0x00, 0x00, 0x00, 0x00, 0x00, 0x00, 0x07, 0x3f, 0x00, 0x00, 0x00, 0x00,
   0x00, 0x01, 0x00, 0x00, 0x00, 0x00, 0x00, 0x00, 0x00, 0x07, 0x3f, 0x00,
   0x00, 0x00, 0x00, 0x80, 0x00, 0x00, 0x00, 0x00, 0x00, 0x00, 0x00, 0x00,
   0xff, 0xff, 0x01, 0x00, 0x00, 0x00, 0x00, 0x00, 0x00, 0x00, 0x00, 0x00,
   0x00, 0x00, 0x00, 0xff, 0xdf, 0x07, 0x00, 0x00, 0x00, 0x08, 0x60, 0x00,
   0x03, 0x30, 0x80, 0x01, 0x00, 0x00, 0xfd, 0xe7, 0x07, 0x00, 0x00, 0x00,
   0x3e, 0xf0, 0x80, 0x07, 0x78, 0xc0, 0x03, 0x1e, 0xc0, 0xfe, 0xf7, 0x07,
   0x00, 0x00, 0x00, 0x7e, 0xf8, 0xc1, 0x0f, 0x7c, 0xe0, 0x07, 0x3e, 0xf0,
   0xfe, 0xff, 0x07, 0x00, 0x00, 0x00, 0x7e, 0xf8, 0xc1, 0x0f, 0xfc, 0xe0,
   0x07, 0x3f, 0xf0, 0xff, 0xff, 0x07, 0x00, 0x00, 0x00, 0xfe, 0xff, 0xff,
   0xdf, 0xfe, 0xf2, 0x0f, 0x7f, 0xf2, 0xff, 0x7f, 0x02, 0x00, 0x00, 0x00,
   0xe8, 0xff, 0xff, 0xff, 0xff, 0xff, 0xff, 0xff, 0xdf, 0xff, 0x3f, 0x00,
   0x00, 0x04, 0x00, 0xe0, 0xff, 0xff, 0xff, 0xff, 0xff, 0xff, 0xff, 0xdf,
   0xff, 0x3f, 0x00, 0x00, 0x0e, 0x60, 0xe0, 0xbf, 0xff, 0xfd, 0xcf, 0xff,
   0xfe, 0xe3, 0x7f, 0xdf, 0x7f, 0x00, 0x00, 0x0e, 0x60, 0xe0, 0xbf, 0xff,
   0xff, 0xef, 0xff, 0xff, 0xff, 0xff, 0xff, 0x3f, 0x00, 0x00, 0x0e, 0x00,
   0xe0, 0xff, 0xff, 0xff, 0xff, 0xff, 0xff, 0xff, 0xff, 0xff, 0x1f, 0x00,
   0x00, 0x00, 0x00, 0xe8, 0xff, 0xff, 0xff, 0xff, 0xff, 0xff, 0xff, 0xff,
   0xff, 0x07, 0x00, 0x00, 0xe0, 0x01, 0x3c, 0xff, 0xff, 0xff, 0xff, 0xff,
   0xff, 0xff, 0xff, 0xff, 0x01, 0x00, 0x20, 0xf0, 0x03, 0x3e, 0xfc, 0xf7,
   0xdf, 0xff, 0xf3, 0xcf, 0xff, 0xfb, 0xfe, 0x83, 0x00, 0x78, 0xf0, 0x03,
   0x3e, 0xfc, 0xe3, 0x3f, 0xff, 0xf1, 0x8f, 0x7f, 0xfc, 0xff, 0x01, 0x00,
   0x70, 0xf0, 0x03, 0x3c, 0xfc, 0xc7, 0x1f, 0xfe, 0xe0, 0x07, 0x7f, 0xf8,
   0xff, 0x01, 0x00, 0x38, 0xfa, 0x03, 0x18, 0xfc, 0x8b, 0x0f, 0xfe, 0xe0,
   0x07, 0x7f, 0xf8, 0xff, 0x17, 0x00, 0xc0, 0xff, 0x03, 0x80, 0xff, 0x1f,
   0x20, 0x01, 0x8e, 0x61, 0x9c, 0xff, 0x7f, 0x0f, 0x00, 0x80, 0xbf, 0x38,
   0xc0, 0xff, 0x3f, 0xc0, 0x00, 0x1f, 0xf0, 0x80, 0xcf, 0x1f, 0x1f, 0x00,
   0xc0, 0x3f, 0x7c, 0xc0, 0x8f, 0x3f, 0xc0, 0x01, 0x0f, 0xf0, 0x80, 0x0f,
   0x0f, 0x1e, 0x00, 0x80, 0x3f, 0x7e, 0xc0, 0x8f, 0x3f, 0xc0, 0x01, 0x0e,
   0x70, 0x80, 0x0f, 0x0f, 0x0c, 0x00, 0x80, 0x3f, 0x7c, 0x80, 0xc7, 0x3f,
   0x00, 0x00, 0x00, 0x40, 0x80, 0x0f, 0x0f, 0x00, 0x00, 0xc0, 0xff, 0x7f,
   0x00, 0xef, 0x3f, 0x00, 0x00, 0x00, 0x00, 0x00, 0x04, 0x7f, 0x00, 0x00,
   0xf0, 0xff, 0x17, 0x00, 0xf0, 0x1f, 0x00, 0x00, 0x00, 0x00, 0x00, 0xe0,
   0x7b, 0x00, 0x00, 0xfc, 0xff, 0x07, 0x00, 0xf8, 0x07, 0x01, 0x00, 0x00,
   0x00, 0x00, 0xe0, 0x7c, 0x00, 0x00, 0xfc, 0xff, 0x07, 0x0d, 0xf8, 0x87,
   0x07, 0x00, 0x00, 0x00, 0x00, 0xf0, 0xfc, 0x00, 0x00, 0xfe, 0xff, 0x07,
   0x06, 0xf0, 0xc7, 0x07, 0x00, 0x00, 0x00, 0x00, 0xe0, 0x7c, 0x00, 0x00,
   0xfe, 0xff, 0x0f, 0x01, 0xf8, 0xcf, 0x0f, 0x20, 0x00, 0x00, 0x00, 0xe0,
   0x23, 0x00, 0x80, 0xfe, 0xff, 0x3f, 0x00, 0xf0, 0xff, 0x07, 0x00, 0x00,
   0x00, 0x00, 0x40, 0x03, 0x00, 0xc0, 0xff, 0xff, 0xff, 0x00, 0x00, 0xff,
   0xe0, 0x00, 0x07, 0x00, 0x00, 0x00, 0x07, 0x00, 0xe0, 0xfb, 0x7f, 0xff,
   0x00, 0x02, 0xff, 0xf0, 0x83, 0x1f, 0x20, 0x00, 0x00, 0x07, 0x00, 0xf0,
   0xe7, 0x3f, 0xfe, 0x00, 0x03, 0xfe, 0xf8, 0x83, 0x1f, 0x78, 0x00, 0x00,
   0x03, 0x00, 0xf0, 0xef, 0x3f, 0xfe, 0x00, 0x00, 0xff, 0xf8, 0x87, 0x3f,
   0x78, 0x00, 0x00, 0x03, 0x00, 0xf0, 0xff, 0x9f, 0xff, 0x00, 0x00, 0xfe,
   0xff, 0xff, 0x3f, 0xf8, 0x00, 0x00, 0x01, 0x00, 0xe0, 0xff, 0xc7, 0xff,
   0x0f, 0x80, 0xfe, 0xff, 0xff, 0xff, 0x5f, 0x00, 0x00, 0x00, 0x00, 0xc7,
   0xff, 0xe0, 0xff, 0x1f, 0xe0, 0xe9, 0xff, 0xff, 0xff, 0x27, 0x0e, 0x00,
   0x00, 0x80, 0x0f, 0xff, 0xe0, 0x8f, 0x1f, 0xe0, 0xc2, 0x7f, 0xff, 0xff,
   0x0f, 0x1f, 0x00, 0x00, 0x80, 0x1f, 0xff, 0xc0, 0x8f, 0x3f, 0xe0, 0xe1,
   0x7f, 0xff, 0xff, 0x9f, 0x3f, 0x80, 0x00, 0x80, 0x9f, 0x7f, 0x80, 0xab,
   0x3f, 0xc0, 0xc1, 0x3f, 0xff, 0xff, 0xff, 0x3f, 0x00, 0x00, 0x80, 0xff,
   0xff, 0x00, 0xf5, 0x3f, 0x00, 0xd0, 0xff, 0xfe, 0xff, 0xff, 0x7f, 0x00,
   0x00, 0x00, 0xfe, 0xff, 0x03, 0xf8, 0x4f, 0x01, 0xf8, 0xff, 0xf7, 0xff,
   0xff, 0xff, 0x07, 0x00, 0x30, 0xfc, 0x9f, 0x07, 0xfc, 0xe3, 0x03, 0x7c,
   0xf0, 0x83, 0xff, 0xff, 0xff, 0x0f, 0x01, 0x3c, 0xf8, 0x87, 0x07, 0xf8,
   0xf3, 0x03, 0x7c, 0xf0, 0x81, 0x3f, 0xfc, 0xff, 0x0f, 0x01, 0x5c, 0xf8,
   0x47, 0x07, 0xf8, 0xe3, 0x03, 0x38, 0xe0, 0x01, 0x3f, 0xfc, 0xff, 0x0f,
   0x00, 0x38, 0xfc, 0x87, 0x00, 0xfc, 0xf7, 0x03, 0x10, 0xc0, 0x00, 0x1e,
   0xf8, 0xff, 0x0f, 0x00, 0x50, 0xff, 0x1f, 0x00, 0xf8, 0xff, 0x01, 0x00,
   0x00, 0x00, 0x00, 0xf1, 0xff, 0x0f, 0x00, 0xc0, 0xff, 0x3f, 0x00, 0xe0,
   0x3f, 0x00, 0x00, 0x00, 0x00, 0x80, 0x03, 0xff, 0xff, 0x00, 0xc0, 0x3f,
   0x3f, 0x80, 0x81, 0x3f, 0x00, 0x00, 0x00, 0x00, 0x80, 0x03, 0xff, 0xff,
   0x60, 0xe0, 0x3f, 0x3f, 0x80, 0xc3, 0x7f, 0x60, 0x00, 0x00, 0x00, 0x80,
   0x01, 0xff, 0xfd, 0x60, 0xe0, 0x3f, 0x3e, 0x80, 0x87, 0x3f, 0x00, 0x00,
   0x00, 0x00, 0x00, 0x00, 0xfe, 0xff, 0x00, 0xf8, 0xff, 0x1e, 0x00, 0xf3,
   0x3f, 0x00, 0x00, 0x00, 0x00, 0x00, 0x00, 0xfe, 0xff, 0x00, 0xfc, 0xff,
   0x03, 0x00, 0xf8, 0xff, 0x01, 0x00, 0x00, 0x00, 0x00, 0x00, 0xe8, 0xff };
